<?xml version="1.0" encoding="UTF-8" standalone="no"?>
<!DOCTYPE svg PUBLIC "-//W3C//DTD SVG 1.1//EN" "http://www.w3.org/Graphics/SVG/1.1/DTD/svg11.dtd">
<svg width="100%" height="100%" viewBox="0 0 500 500" version="1.1" xmlns="http://www.w3.org/2000/svg" xmlns:xlink="http://www.w3.org/1999/xlink" xml:space="preserve" xmlns:serif="http://www.serif.com/" style="fill-rule:evenodd;clip-rule:evenodd;stroke-linejoin:round;stroke-miterlimit:2;">
    <g transform="matrix(0.875003,0,0,0.875003,-56.343,5.00175)">
        <path d="M460.83,262.5C460.83,267.141 458.986,271.594 455.705,274.875C452.424,278.156 447.974,280 443.33,280C438.689,280 434.24,278.156 430.955,274.875C427.674,271.594 425.83,267.141 425.83,262.5C425.83,257.859 427.674,253.406 430.955,250.125C434.24,246.844 438.689,245 443.33,245C447.974,245 452.424,246.844 455.705,250.125C458.986,253.406 460.83,257.859 460.83,262.5ZM256.67,245C252.025,245 247.576,246.844 244.295,250.125C241.014,253.406 239.17,257.859 239.17,262.5C239.17,267.141 241.014,271.594 244.295,274.875C247.576,278.156 252.025,280 256.67,280C261.311,280 265.76,278.156 269.045,274.875C272.326,271.594 274.17,267.141 274.17,262.5C274.17,257.859 272.326,253.406 269.045,250.125C265.76,246.844 261.311,245 256.67,245ZM512.05,166.133C529.085,201.133 557.085,269.843 548.218,321.883C542.616,354.551 517.534,408.918 473.784,483.343L473.784,483.347C473.784,490.824 472.643,498.261 470.397,505.394C465.065,521.312 454.862,535.148 441.229,544.945C427.6,554.746 411.233,560.011 394.448,559.996L305.55,559.996C288.765,560.012 272.398,554.746 258.769,544.945C245.136,535.148 234.933,521.312 229.601,505.394C227.347,498.261 226.203,490.828 226.215,483.347C182.465,408.913 157.383,355.017 151.781,321.887C142.913,269.739 171.031,201.257 187.949,166.017C192.265,152.833 167.301,78.052 141.281,16.217L141.285,16.213C139.671,12.67 139.933,8.557 141.984,5.248C144.128,1.99 147.765,0.017 151.667,-0.002C199.851,-0.002 241.616,37.447 267.287,67.08C287.822,37.213 326.322,21.814 360.619,17.498C398.537,12.947 439.721,20.533 455.818,43.049C480.435,20.764 512.634,-0.002 548.334,-0.002C552.237,0.018 555.873,1.99 558.018,5.248C560.182,8.498 560.577,12.615 559.069,16.213C532.819,78.049 507.737,152.713 512.053,166.133L512.05,166.133ZM275.57,116.668C275.57,181.883 326.437,251.878 358.754,289.798L339.969,176.748C338.824,171.873 340.918,166.811 345.172,164.17C349.426,161.526 354.891,161.893 358.754,165.08L392.238,191.912C381.273,153.178 368.906,100.213 378.937,80.492C388.972,60.777 411.722,52.844 429.222,49.109L429.218,49.113C414.808,41.738 398.726,38.242 382.554,38.961C376.16,38.961 369.769,39.352 363.421,40.129C321.187,45.961 275.569,68.711 275.569,116.664L275.57,116.668ZM440.3,453.828C437.968,451.726 431.085,445.43 414.749,452.66L414.749,452.664C373.577,471.215 326.421,471.215 285.249,452.664C280.96,450.551 276.261,449.398 271.483,449.281C267.139,449.172 262.94,450.812 259.815,453.828C249.784,466.195 246.749,482.82 251.764,497.93C255.549,509.203 262.776,519.004 272.424,525.95C282.073,532.899 293.658,536.645 305.549,536.665L394.447,536.665C406.357,536.673 417.97,532.935 427.642,525.985C437.314,519.036 444.556,509.219 448.349,497.93C453.361,482.821 450.33,466.196 440.298,453.828L440.3,453.828ZM479.851,154.458C476.703,148.852 478.687,141.755 484.285,138.595C486.667,137.169 489.523,136.751 492.214,137.427C501.8,99.247 514.359,61.876 529.784,25.657C475.182,39.423 430.268,108.489 429.8,109.305C426.175,114.34 419.241,115.653 414.023,112.301C408.809,108.946 407.125,102.094 410.199,96.703C415.219,89.012 420.672,81.613 426.535,74.539C415.797,76.637 406.25,82.723 399.816,91.57C393.285,104.988 408.332,169.156 425.714,221.66C427.363,226.586 425.558,232.008 421.284,234.957C417.159,238.012 411.523,238.012 407.397,234.957L367.963,203.457L388.264,325.027L388.264,325.031C389.096,329.992 386.651,334.933 382.198,337.281C380.503,338.148 378.62,338.59 376.714,338.562C373.71,338.55 370.827,337.379 368.667,335.297C363.882,330.746 251.997,222.007 251.997,117.127C252.18,107.998 253.755,98.951 256.665,90.295C239.981,69.994 207.313,34.994 170.212,25.779C185.653,61.947 198.216,99.279 207.782,137.429C210.477,136.765 213.325,137.183 215.711,138.597C221.309,141.757 223.293,148.855 220.145,154.46C220.145,155.393 164.028,254.444 174.879,317.79C179.313,344.04 199.613,389.423 233.914,449.74L233.914,449.744C236.422,444.704 239.82,440.158 243.945,436.326C250.883,430.392 259.488,426.755 268.578,425.92C277.668,425.084 286.793,427.091 294.695,431.662C329.832,447.639 370.16,447.639 405.295,431.662C413.256,427.17 422.412,425.259 431.506,426.201C440.596,427.142 449.174,430.884 456.045,436.912C460.346,440.588 463.943,445.013 466.662,449.978C500.963,389.662 521.264,344.278 525.697,318.028C535.959,254.442 480.427,155.388 479.845,154.458L479.851,154.458ZM303.331,478.328C291.37,479.543 280.198,484.859 271.714,493.379C269.519,495.563 268.28,498.527 268.269,501.621C268.257,504.719 269.476,507.691 271.659,509.887C276.198,514.461 283.593,514.488 288.167,509.945C292.273,505.723 297.558,502.836 303.331,501.664C309.081,502.816 314.335,505.707 318.382,509.945C320.574,512.156 323.554,513.398 326.667,513.398C329.777,513.398 332.757,512.156 334.949,509.945C337.16,507.754 338.402,504.773 338.402,501.664C338.402,498.551 337.16,495.57 334.949,493.379C326.464,484.859 315.293,479.543 303.332,478.328L303.331,478.328ZM396.663,478.328L396.667,478.328C384.706,479.543 373.534,484.859 365.05,493.379C362.851,495.563 361.612,498.527 361.601,501.621C361.589,504.719 362.808,507.691 364.991,509.887C369.534,514.461 376.925,514.488 381.499,509.945C385.605,505.723 390.894,502.836 396.667,501.664C402.413,502.816 407.667,505.707 411.714,509.945C413.906,512.156 416.89,513.398 420,513.398C423.109,513.398 426.093,512.156 428.285,509.945C430.492,507.754 431.734,504.773 431.734,501.664C431.734,498.551 430.492,495.57 428.285,493.379C419.8,484.859 408.629,479.543 396.668,478.328L396.663,478.328Z" style="fill-rule:nonzero;"/>
    </g>
</svg>
