<?xml version="1.0" encoding="UTF-8"?>
<svg width="512px" height="512px" viewBox="0 0 512 512" version="1.1" xmlns="http://www.w3.org/2000/svg" xmlns:xlink="http://www.w3.org/1999/xlink">
    <title>Nag@1x</title>
    <defs>
        <linearGradient x1="50%" y1="0%" x2="50%" y2="100%" id="linearGradient-1">
            <stop stop-color="#FFFFFF" stop-opacity="0" offset="0%"></stop>
            <stop stop-color="#000000" stop-opacity="0.117242133" offset="100%"></stop>
        </linearGradient>
        <path d="M125.630375,-5.07561751e-15 L386.369625,5.07561751e-15 C430.054043,-2.94907994e-15 445.895069,4.54845495 461.865439,13.0895025 C477.83581,21.63055 490.36945,34.1641902 498.910498,50.1345605 C507.451545,66.1049309 512,81.9459565 512,125.630375 L512,386.369625 C512,430.054043 507.451545,445.895069 498.910498,461.865439 C490.36945,477.83581 477.83581,490.36945 461.865439,498.910498 C445.895069,507.451545 430.054043,512 386.369625,512 L125.630375,512 C81.9459565,512 66.1049309,507.451545 50.1345605,498.910498 C34.1641902,490.36945 21.63055,477.83581 13.0895025,461.865439 C4.54845495,445.895069 1.96605329e-15,430.054043 -3.38374501e-15,386.369625 L3.38374501e-15,125.630375 C-1.96605329e-15,81.9459565 4.54845495,66.1049309 13.0895025,50.1345605 C21.63055,34.1641902 34.1641902,21.63055 50.1345605,13.0895025 C66.1049309,4.54845495 81.9459565,2.94907994e-15 125.630375,-5.07561751e-15 Z" id="path-2"></path>
        <path d="M240,79 C283.631188,79 319.002139,114.563989 319,158.434075 L319,159.642864 C319,170.550488 310.157624,179.392864 299.25,179.392864 C288.342376,179.392864 279.5,170.550488 279.5,159.642864 L279.5,158.434075 C279.5,136.501509 261.816415,118.719789 240,118.719789 C218.185775,118.719789 200.5,136.499307 200.5,158.434075 L200.5,215 L329.250275,215 C345.612321,215.002153 359,228.42746 359,244.835495 L359,271.3 L288.159,394 L150.749725,394 C134.387679,394 121,380.57254 121,364.164505 L121,244.833342 C121,228.425307 134.387679,215 150.749725,215 L161,215 L161,158.428571 C161,114.562888 196.368812,79 240,79 Z M240,265 C223.983742,265 211,277.983742 211,294 C211,304.526287 216.608261,313.742695 224.999778,318.824218 L225,333 C225,338.522847 229.477153,343 235,343 L246,343 C251.522847,343 256,338.522847 256,333 L256.000649,318.190141 C263.834498,312.997999 269,304.102233 269,294 C269,277.983742 256.016258,265 240,265 Z" id="path-3"></path>
        <filter x="-6.5%" y="-4.6%" width="113.0%" height="109.8%" filterUnits="objectBoundingBox" id="filter-4">
            <feMorphology radius="1" operator="dilate" in="SourceAlpha" result="shadowSpreadOuter1"></feMorphology>
            <feOffset dx="0" dy="1" in="shadowSpreadOuter1" result="shadowOffsetOuter1"></feOffset>
            <feGaussianBlur stdDeviation="4" in="shadowOffsetOuter1" result="shadowBlurOuter1"></feGaussianBlur>
            <feColorMatrix values="0 0 0 0 0   0 0 0 0 0   0 0 0 0 0  0 0 0 0.13 0" type="matrix" in="shadowBlurOuter1"></feColorMatrix>
        </filter>
        <path d="M424.03266,409.296844 L374.644004,323.547143 C371.913978,318.817619 365.088691,318.817619 362.358665,323.547143 L312.970009,409.296844 C310.239983,414.026368 313.590647,420 319.050743,420 L417.828055,420 C423.411092,420 426.7618,414.025479 424.031774,409.296844 L424.03266,409.296844 Z M365.954241,350.18609 C369.002212,349.460705 372.049503,350.911474 373.446386,353.571821 C373.953958,354.539281 374.081514,355.627335 373.953958,356.594795 C373.69973,359.617769 373.573058,362.640744 373.446386,365.784421 C373.192158,370.500261 372.811258,375.336588 372.55703,380.052428 C372.43036,381.503196 372.43036,382.954699 372.302802,384.526214 C372.176132,387.065944 370.144096,389 367.476979,389 C364.937419,389 362.778599,387.065102 362.651157,384.646917 C362.270256,377.27086 361.7618,369.894802 361.3809,362.518745 C361.25423,360.583847 361.126672,358.528419 361,356.5935 C361.001772,353.69274 363.033825,350.912035 365.954399,350.186521 L365.954241,350.18609 Z M368.435757,407 C364.831733,407 362,404.068752 362,400.5 C362,396.931248 364.960219,394 368.564243,394 C372.168267,394 375,396.931248 375,400.627911 C374.871609,404.067614 371.911296,406.999772 368.435757,406.999772 L368.435757,407 Z" id="path-5"></path>
        <filter x="-13.7%" y="-14.5%" width="127.4%" height="131.0%" filterUnits="objectBoundingBox" id="filter-6">
            <feMorphology radius="1" operator="dilate" in="SourceAlpha" result="shadowSpreadOuter1"></feMorphology>
            <feOffset dx="0" dy="1" in="shadowSpreadOuter1" result="shadowOffsetOuter1"></feOffset>
            <feGaussianBlur stdDeviation="4" in="shadowOffsetOuter1" result="shadowBlurOuter1"></feGaussianBlur>
            <feColorMatrix values="0 0 0 0 0   0 0 0 0 0   0 0 0 0 0  0 0 0 0.13 0" type="matrix" in="shadowBlurOuter1"></feColorMatrix>
        </filter>
    </defs>
    <g id="Nag" stroke="none" stroke-width="1" fill="none" fill-rule="evenodd">
        <rect fill="#FFFFFF" x="0" y="0" width="512" height="512"></rect>
        <g id="Rectangle">
            <use fill="#DA561E" xlink:href="#path-2"></use>
            <use fill="url(#linearGradient-1)" xlink:href="#path-2"></use>
        </g>
        <g id="Shape" fill-rule="nonzero">
            <use fill="black" fill-opacity="1" filter="url(#filter-4)" xlink:href="#path-3"></use>
            <use fill="#FFFFFF" xlink:href="#path-3"></use>
        </g>
        <g id="Shape" fill-rule="nonzero">
            <use fill="black" fill-opacity="1" filter="url(#filter-6)" xlink:href="#path-5"></use>
            <use fill="#FFFFFF" xlink:href="#path-5"></use>
        </g>
    </g>
</svg>